# xmcd CD database file
#
# Track frame offsets:
#	150
#	22872
#	46899
#	69582
#	87257
#	109442
#	137306
#	141675
#	168739
#	194860
#	222754
#	246205
#
# Disc length: 3403 seconds
#
# Revision: 0
# Processed by: cddbd v1.5PL3 Copyright (c) Steve Scherf et al.
# Submitted via: CDex 1.51
#
DISCID=b60d490c
DTITLE=Dov - Journey to Eden
DYEAR=2004
DGENRE=New Age
TTITLE0=Temple of the Goddess
TTITLE1=Imagine
TTITLE2=Ancient Garden
TTITLE3=Baja
TTITLE4=Love Story
TTITLE5=Journey to Eden
TTITLE6=Emergence
TTITLE7=Dancing Waters
TTITLE8=Forever in Time
TTITLE9=Summer Rain
TTITLE10=Seraphim Rhapsody
TTITLE11=Sea of Tranquility
EXTD=YEAR: 2004
EXTT0=
EXTT1=
EXTT2=
EXTT3=
EXTT4=
EXTT5=
EXTT6=
EXTT7=
EXTT8=
EXTT9=
EXTT10=
EXTT11=
PLAYORDER=
